<mxfile host="app.diagrams.net" modified="2024-05-17T03:54:39.746Z" agent="Mozilla/5.0 (Windows NT 10.0; Win64; x64) AppleWebKit/537.36 (KHTML, like Gecko) Chrome/124.0.0.0 Safari/537.36 Edg/124.0.0.0" etag="K_GOwIgGWY0HkTdtbvln" version="24.4.2" type="device">
  <diagram name="Page-1" id="96nJuOYP7qc74VYr1-mM">
    <mxGraphModel dx="1542" dy="888" grid="1" gridSize="10" guides="1" tooltips="1" connect="1" arrows="1" fold="1" page="1" pageScale="1" pageWidth="827" pageHeight="1169" math="0" shadow="0">
      <root>
        <mxCell id="0" />
        <mxCell id="1" parent="0" />
        <mxCell id="DfQK7VcI76vEsffELHaV-1" value="Покупатель" style="shape=umlActor;verticalLabelPosition=bottom;verticalAlign=top;html=1;outlineConnect=0;" vertex="1" parent="1">
          <mxGeometry x="31" y="137" width="30" height="60" as="geometry" />
        </mxCell>
        <mxCell id="DfQK7VcI76vEsffELHaV-2" value="Продавец" style="shape=umlActor;verticalLabelPosition=bottom;verticalAlign=top;html=1;outlineConnect=0;" vertex="1" parent="1">
          <mxGeometry x="31" y="387" width="30" height="60" as="geometry" />
        </mxCell>
        <mxCell id="DfQK7VcI76vEsffELHaV-3" value="Грузчик" style="shape=umlActor;verticalLabelPosition=bottom;verticalAlign=top;html=1;outlineConnect=0;" vertex="1" parent="1">
          <mxGeometry x="31" y="617" width="30" height="60" as="geometry" />
        </mxCell>
        <mxCell id="DfQK7VcI76vEsffELHaV-4" value="Админ" style="shape=umlActor;verticalLabelPosition=bottom;verticalAlign=top;html=1;outlineConnect=0;" vertex="1" parent="1">
          <mxGeometry x="771" y="147" width="20" height="60" as="geometry" />
        </mxCell>
        <mxCell id="DfQK7VcI76vEsffELHaV-6" value="" style="rounded=0;whiteSpace=wrap;html=1;" vertex="1" parent="1">
          <mxGeometry x="81" y="47" width="650" height="890" as="geometry" />
        </mxCell>
        <mxCell id="DfQK7VcI76vEsffELHaV-7" value="Бухгалтер" style="shape=umlActor;verticalLabelPosition=bottom;verticalAlign=top;html=1;outlineConnect=0;" vertex="1" parent="1">
          <mxGeometry x="766" y="537" width="30" height="60" as="geometry" />
        </mxCell>
        <mxCell id="DfQK7VcI76vEsffELHaV-10" value="Система минимаркета" style="text;html=1;align=center;verticalAlign=middle;whiteSpace=wrap;rounded=0;" vertex="1" parent="1">
          <mxGeometry x="316" y="10" width="180" height="30" as="geometry" />
        </mxCell>
        <mxCell id="DfQK7VcI76vEsffELHaV-11" value="" style="rounded=1;whiteSpace=wrap;html=1;" vertex="1" parent="1">
          <mxGeometry x="151" y="87" width="100" height="40" as="geometry" />
        </mxCell>
        <mxCell id="DfQK7VcI76vEsffELHaV-12" value="Оплатить товар" style="text;html=1;align=center;verticalAlign=middle;whiteSpace=wrap;rounded=0;" vertex="1" parent="1">
          <mxGeometry x="156" y="92" width="90" height="30" as="geometry" />
        </mxCell>
        <mxCell id="DfQK7VcI76vEsffELHaV-13" value="" style="rounded=1;whiteSpace=wrap;html=1;" vertex="1" parent="1">
          <mxGeometry x="141" y="167" width="110" height="50" as="geometry" />
        </mxCell>
        <mxCell id="DfQK7VcI76vEsffELHaV-14" value="Оценить качество обслуживание и товар" style="text;html=1;align=center;verticalAlign=middle;whiteSpace=wrap;rounded=0;" vertex="1" parent="1">
          <mxGeometry x="141" y="177" width="110" height="30" as="geometry" />
        </mxCell>
        <mxCell id="DfQK7VcI76vEsffELHaV-17" value="" style="endArrow=classic;html=1;rounded=0;entryX=0;entryY=0.5;entryDx=0;entryDy=0;" edge="1" parent="1" source="DfQK7VcI76vEsffELHaV-1" target="DfQK7VcI76vEsffELHaV-11">
          <mxGeometry width="50" height="50" relative="1" as="geometry">
            <mxPoint x="341" y="307" as="sourcePoint" />
            <mxPoint x="391" y="257" as="targetPoint" />
          </mxGeometry>
        </mxCell>
        <mxCell id="DfQK7VcI76vEsffELHaV-18" value="" style="endArrow=classic;html=1;rounded=0;entryX=0;entryY=0.5;entryDx=0;entryDy=0;" edge="1" parent="1" source="DfQK7VcI76vEsffELHaV-1" target="DfQK7VcI76vEsffELHaV-14">
          <mxGeometry width="50" height="50" relative="1" as="geometry">
            <mxPoint x="71" y="168" as="sourcePoint" />
            <mxPoint x="161" y="117" as="targetPoint" />
          </mxGeometry>
        </mxCell>
        <mxCell id="DfQK7VcI76vEsffELHaV-21" value="" style="rounded=1;whiteSpace=wrap;html=1;" vertex="1" parent="1">
          <mxGeometry x="136" y="627" width="110" height="50" as="geometry" />
        </mxCell>
        <mxCell id="DfQK7VcI76vEsffELHaV-22" value="Заносить количество товаров в систему" style="text;html=1;align=center;verticalAlign=middle;whiteSpace=wrap;rounded=0;" vertex="1" parent="1">
          <mxGeometry x="136" y="637" width="110" height="30" as="geometry" />
        </mxCell>
        <mxCell id="DfQK7VcI76vEsffELHaV-23" value="" style="endArrow=classic;html=1;rounded=0;entryX=0;entryY=0.5;entryDx=0;entryDy=0;" edge="1" parent="1" source="DfQK7VcI76vEsffELHaV-3" target="DfQK7VcI76vEsffELHaV-22">
          <mxGeometry width="50" height="50" relative="1" as="geometry">
            <mxPoint x="421" y="527" as="sourcePoint" />
            <mxPoint x="471" y="477" as="targetPoint" />
          </mxGeometry>
        </mxCell>
        <mxCell id="DfQK7VcI76vEsffELHaV-24" value="" style="rounded=1;whiteSpace=wrap;html=1;" vertex="1" parent="1">
          <mxGeometry x="156" y="317" width="110" height="50" as="geometry" />
        </mxCell>
        <mxCell id="DfQK7VcI76vEsffELHaV-25" value="Оформление продажи в системе" style="text;html=1;align=center;verticalAlign=middle;whiteSpace=wrap;rounded=0;" vertex="1" parent="1">
          <mxGeometry x="156" y="327" width="110" height="30" as="geometry" />
        </mxCell>
        <mxCell id="DfQK7VcI76vEsffELHaV-26" value="" style="rounded=1;whiteSpace=wrap;html=1;" vertex="1" parent="1">
          <mxGeometry x="156" y="377" width="110" height="50" as="geometry" />
        </mxCell>
        <mxCell id="DfQK7VcI76vEsffELHaV-27" value="Мониторинг остатков товаров" style="text;html=1;align=center;verticalAlign=middle;whiteSpace=wrap;rounded=0;" vertex="1" parent="1">
          <mxGeometry x="156" y="387" width="110" height="30" as="geometry" />
        </mxCell>
        <mxCell id="DfQK7VcI76vEsffELHaV-28" value="" style="rounded=1;whiteSpace=wrap;html=1;" vertex="1" parent="1">
          <mxGeometry x="156" y="437" width="110" height="50" as="geometry" />
        </mxCell>
        <mxCell id="DfQK7VcI76vEsffELHaV-29" value="Установка цен на товары" style="text;html=1;align=center;verticalAlign=middle;whiteSpace=wrap;rounded=0;" vertex="1" parent="1">
          <mxGeometry x="156" y="447" width="110" height="30" as="geometry" />
        </mxCell>
        <mxCell id="DfQK7VcI76vEsffELHaV-32" value="" style="endArrow=classic;html=1;rounded=0;entryX=0;entryY=0.75;entryDx=0;entryDy=0;" edge="1" parent="1" source="DfQK7VcI76vEsffELHaV-2" target="DfQK7VcI76vEsffELHaV-25">
          <mxGeometry width="50" height="50" relative="1" as="geometry">
            <mxPoint x="421" y="527" as="sourcePoint" />
            <mxPoint x="471" y="477" as="targetPoint" />
          </mxGeometry>
        </mxCell>
        <mxCell id="DfQK7VcI76vEsffELHaV-33" value="" style="endArrow=classic;html=1;rounded=0;entryX=0;entryY=0.75;entryDx=0;entryDy=0;" edge="1" parent="1" target="DfQK7VcI76vEsffELHaV-27">
          <mxGeometry width="50" height="50" relative="1" as="geometry">
            <mxPoint x="71" y="418" as="sourcePoint" />
            <mxPoint x="166" y="360" as="targetPoint" />
          </mxGeometry>
        </mxCell>
        <mxCell id="DfQK7VcI76vEsffELHaV-34" value="" style="endArrow=classic;html=1;rounded=0;entryX=0;entryY=0.5;entryDx=0;entryDy=0;" edge="1" parent="1" source="DfQK7VcI76vEsffELHaV-2" target="DfQK7VcI76vEsffELHaV-29">
          <mxGeometry width="50" height="50" relative="1" as="geometry">
            <mxPoint x="81" y="428" as="sourcePoint" />
            <mxPoint x="176" y="370" as="targetPoint" />
          </mxGeometry>
        </mxCell>
        <mxCell id="DfQK7VcI76vEsffELHaV-35" value="" style="rounded=1;whiteSpace=wrap;html=1;" vertex="1" parent="1">
          <mxGeometry x="519" y="77" width="150" height="50" as="geometry" />
        </mxCell>
        <mxCell id="DfQK7VcI76vEsffELHaV-36" value="Техническая поддержка системы и настройка системы" style="text;html=1;align=center;verticalAlign=middle;whiteSpace=wrap;rounded=0;" vertex="1" parent="1">
          <mxGeometry x="524" y="87" width="140" height="30" as="geometry" />
        </mxCell>
        <mxCell id="DfQK7VcI76vEsffELHaV-37" value="" style="rounded=1;whiteSpace=wrap;html=1;" vertex="1" parent="1">
          <mxGeometry x="519" y="157" width="140" height="50" as="geometry" />
        </mxCell>
        <mxCell id="DfQK7VcI76vEsffELHaV-38" value="Устранение неполадок и ошибок в работе системы" style="text;html=1;align=center;verticalAlign=middle;whiteSpace=wrap;rounded=0;" vertex="1" parent="1">
          <mxGeometry x="524" y="167" width="130" height="30" as="geometry" />
        </mxCell>
        <mxCell id="DfQK7VcI76vEsffELHaV-41" value="" style="rounded=1;whiteSpace=wrap;html=1;" vertex="1" parent="1">
          <mxGeometry x="526" y="447" width="110" height="50" as="geometry" />
        </mxCell>
        <mxCell id="DfQK7VcI76vEsffELHaV-42" value="Учет прихода и расхода товаров" style="text;html=1;align=center;verticalAlign=middle;whiteSpace=wrap;rounded=0;" vertex="1" parent="1">
          <mxGeometry x="526" y="457" width="110" height="30" as="geometry" />
        </mxCell>
        <mxCell id="DfQK7VcI76vEsffELHaV-45" value="" style="rounded=1;whiteSpace=wrap;html=1;" vertex="1" parent="1">
          <mxGeometry x="511" y="527" width="140" height="50" as="geometry" />
        </mxCell>
        <mxCell id="DfQK7VcI76vEsffELHaV-46" value="Оформление приходо-расходных документов" style="text;html=1;align=center;verticalAlign=middle;whiteSpace=wrap;rounded=0;" vertex="1" parent="1">
          <mxGeometry x="511" y="537" width="140" height="30" as="geometry" />
        </mxCell>
        <mxCell id="DfQK7VcI76vEsffELHaV-47" value="" style="rounded=1;whiteSpace=wrap;html=1;" vertex="1" parent="1">
          <mxGeometry x="521" y="597" width="110" height="50" as="geometry" />
        </mxCell>
        <mxCell id="DfQK7VcI76vEsffELHaV-48" value="Подготовка отчетности" style="text;html=1;align=center;verticalAlign=middle;whiteSpace=wrap;rounded=0;" vertex="1" parent="1">
          <mxGeometry x="521" y="607" width="110" height="30" as="geometry" />
        </mxCell>
        <mxCell id="DfQK7VcI76vEsffELHaV-49" value="" style="rounded=1;whiteSpace=wrap;html=1;" vertex="1" parent="1">
          <mxGeometry x="521" y="677" width="110" height="50" as="geometry" />
        </mxCell>
        <mxCell id="DfQK7VcI76vEsffELHaV-50" value="Ведение бухгалтерского учета" style="text;html=1;align=center;verticalAlign=middle;whiteSpace=wrap;rounded=0;" vertex="1" parent="1">
          <mxGeometry x="521" y="687" width="110" height="30" as="geometry" />
        </mxCell>
        <mxCell id="DfQK7VcI76vEsffELHaV-51" value="" style="rounded=1;whiteSpace=wrap;html=1;" vertex="1" parent="1">
          <mxGeometry x="511" y="757" width="110" height="50" as="geometry" />
        </mxCell>
        <mxCell id="DfQK7VcI76vEsffELHaV-52" value="Контроль оплаты счетов-фактур" style="text;html=1;align=center;verticalAlign=middle;whiteSpace=wrap;rounded=0;" vertex="1" parent="1">
          <mxGeometry x="511" y="767" width="110" height="30" as="geometry" />
        </mxCell>
        <mxCell id="DfQK7VcI76vEsffELHaV-53" value="" style="rounded=1;whiteSpace=wrap;html=1;" vertex="1" parent="1">
          <mxGeometry x="538.5" y="230" width="110" height="50" as="geometry" />
        </mxCell>
        <mxCell id="DfQK7VcI76vEsffELHaV-54" value="Добавление сотрудников" style="text;html=1;align=center;verticalAlign=middle;whiteSpace=wrap;rounded=0;" vertex="1" parent="1">
          <mxGeometry x="529.5" y="240" width="130" height="30" as="geometry" />
        </mxCell>
        <mxCell id="DfQK7VcI76vEsffELHaV-55" value="" style="rounded=1;whiteSpace=wrap;html=1;" vertex="1" parent="1">
          <mxGeometry x="537.5" y="287" width="110" height="50" as="geometry" />
        </mxCell>
        <mxCell id="DfQK7VcI76vEsffELHaV-56" value="Удаление сотрудников" style="text;html=1;align=center;verticalAlign=middle;whiteSpace=wrap;rounded=0;" vertex="1" parent="1">
          <mxGeometry x="528.5" y="297" width="120" height="30" as="geometry" />
        </mxCell>
        <mxCell id="DfQK7VcI76vEsffELHaV-57" value="" style="rounded=1;whiteSpace=wrap;html=1;" vertex="1" parent="1">
          <mxGeometry x="537.5" y="347" width="110" height="50" as="geometry" />
        </mxCell>
        <mxCell id="DfQK7VcI76vEsffELHaV-58" value="Изменение данных сотрудников" style="text;html=1;align=center;verticalAlign=middle;whiteSpace=wrap;rounded=0;" vertex="1" parent="1">
          <mxGeometry x="540" y="357" width="105" height="30" as="geometry" />
        </mxCell>
        <mxCell id="DfQK7VcI76vEsffELHaV-60" value="" style="endArrow=classic;html=1;rounded=0;entryX=1;entryY=0.5;entryDx=0;entryDy=0;exitX=0.5;exitY=0.5;exitDx=0;exitDy=0;exitPerimeter=0;" edge="1" parent="1" source="DfQK7VcI76vEsffELHaV-4" target="DfQK7VcI76vEsffELHaV-36">
          <mxGeometry width="50" height="50" relative="1" as="geometry">
            <mxPoint x="370" y="420" as="sourcePoint" />
            <mxPoint x="420" y="370" as="targetPoint" />
          </mxGeometry>
        </mxCell>
        <mxCell id="DfQK7VcI76vEsffELHaV-61" value="" style="endArrow=classic;html=1;rounded=0;entryX=1;entryY=0.5;entryDx=0;entryDy=0;" edge="1" parent="1" target="DfQK7VcI76vEsffELHaV-37">
          <mxGeometry width="50" height="50" relative="1" as="geometry">
            <mxPoint x="770" y="182" as="sourcePoint" />
            <mxPoint x="674" y="112" as="targetPoint" />
          </mxGeometry>
        </mxCell>
        <mxCell id="DfQK7VcI76vEsffELHaV-62" value="" style="endArrow=classic;html=1;rounded=0;" edge="1" parent="1" source="DfQK7VcI76vEsffELHaV-4" target="DfQK7VcI76vEsffELHaV-54">
          <mxGeometry width="50" height="50" relative="1" as="geometry">
            <mxPoint x="801" y="197" as="sourcePoint" />
            <mxPoint x="684" y="122" as="targetPoint" />
          </mxGeometry>
        </mxCell>
        <mxCell id="DfQK7VcI76vEsffELHaV-63" value="" style="endArrow=classic;html=1;rounded=0;entryX=1;entryY=0.5;entryDx=0;entryDy=0;" edge="1" parent="1" target="DfQK7VcI76vEsffELHaV-56">
          <mxGeometry width="50" height="50" relative="1" as="geometry">
            <mxPoint x="770" y="180" as="sourcePoint" />
            <mxPoint x="669" y="192" as="targetPoint" />
          </mxGeometry>
        </mxCell>
        <mxCell id="DfQK7VcI76vEsffELHaV-64" value="" style="endArrow=classic;html=1;rounded=0;entryX=1;entryY=0.5;entryDx=0;entryDy=0;" edge="1" parent="1" target="DfQK7VcI76vEsffELHaV-58">
          <mxGeometry width="50" height="50" relative="1" as="geometry">
            <mxPoint x="770" y="180" as="sourcePoint" />
            <mxPoint x="679" y="202" as="targetPoint" />
          </mxGeometry>
        </mxCell>
        <mxCell id="DfQK7VcI76vEsffELHaV-65" value="" style="endArrow=classic;html=1;rounded=0;entryX=1;entryY=0.75;entryDx=0;entryDy=0;" edge="1" parent="1" target="DfQK7VcI76vEsffELHaV-42">
          <mxGeometry width="50" height="50" relative="1" as="geometry">
            <mxPoint x="770" y="566.26" as="sourcePoint" />
            <mxPoint x="659" y="566.26" as="targetPoint" />
          </mxGeometry>
        </mxCell>
        <mxCell id="DfQK7VcI76vEsffELHaV-66" value="" style="endArrow=classic;html=1;rounded=0;" edge="1" parent="1" source="DfQK7VcI76vEsffELHaV-7" target="DfQK7VcI76vEsffELHaV-46">
          <mxGeometry width="50" height="50" relative="1" as="geometry">
            <mxPoint x="780" y="576.26" as="sourcePoint" />
            <mxPoint x="646" y="490" as="targetPoint" />
          </mxGeometry>
        </mxCell>
        <mxCell id="DfQK7VcI76vEsffELHaV-67" value="" style="endArrow=classic;html=1;rounded=0;entryX=1;entryY=0.75;entryDx=0;entryDy=0;" edge="1" parent="1" target="DfQK7VcI76vEsffELHaV-48">
          <mxGeometry width="50" height="50" relative="1" as="geometry">
            <mxPoint x="770" y="570" as="sourcePoint" />
            <mxPoint x="661" y="567" as="targetPoint" />
          </mxGeometry>
        </mxCell>
        <mxCell id="DfQK7VcI76vEsffELHaV-68" value="" style="endArrow=classic;html=1;rounded=0;entryX=1;entryY=0.75;entryDx=0;entryDy=0;" edge="1" parent="1" target="DfQK7VcI76vEsffELHaV-50">
          <mxGeometry width="50" height="50" relative="1" as="geometry">
            <mxPoint x="770" y="570" as="sourcePoint" />
            <mxPoint x="671" y="577" as="targetPoint" />
          </mxGeometry>
        </mxCell>
        <mxCell id="DfQK7VcI76vEsffELHaV-69" value="" style="endArrow=classic;html=1;rounded=0;entryX=1;entryY=0.5;entryDx=0;entryDy=0;" edge="1" parent="1" target="DfQK7VcI76vEsffELHaV-52">
          <mxGeometry width="50" height="50" relative="1" as="geometry">
            <mxPoint x="770" y="570" as="sourcePoint" />
            <mxPoint x="681" y="587" as="targetPoint" />
          </mxGeometry>
        </mxCell>
      </root>
    </mxGraphModel>
  </diagram>
</mxfile>
